<svg xmlns="http://www.w3.org/2000/svg" viewBox="0 0 900 620" font-family="Segoe UI, Roboto, Arial, sans-serif">
  <defs>
    <marker id="arrow" viewBox="0 0 10 7" refX="10" refY="3.5" markerWidth="10" markerHeight="7" orient="auto-start-reverse">
      <path d="M0,0 L10,3.5 L0,7z" fill="#64748b"/>
    </marker>
    <marker id="arrow-green" viewBox="0 0 10 7" refX="10" refY="3.5" markerWidth="10" markerHeight="7" orient="auto-start-reverse">
      <path d="M0,0 L10,3.5 L0,7z" fill="#22c55e"/>
    </marker>
    <marker id="arrow-red" viewBox="0 0 10 7" refX="10" refY="3.5" markerWidth="10" markerHeight="7" orient="auto-start-reverse">
      <path d="M0,0 L10,3.5 L0,7z" fill="#ef4444"/>
    </marker>
    <filter id="shadow" x="-4%" y="-4%" width="108%" height="112%">
      <feDropShadow dx="0" dy="2" stdDeviation="3" flood-opacity="0.10"/>
    </filter>
  </defs>

  <!-- Background -->
  <rect width="900" height="620" rx="12" fill="#f8fafc"/>

  <!-- Title -->
  <text x="450" y="36" text-anchor="middle" font-size="20" font-weight="700" fill="#0f172a">WiFi Time Controller — Architecture</text>

  <!-- ======================== NETWORK LAYER ======================== -->
  <text x="32" y="68" font-size="11" font-weight="600" fill="#94a3b8" letter-spacing="1">NETWORK</text>

  <!-- Internet cloud -->
  <rect x="30" y="82" width="120" height="52" rx="26" fill="#e0f2fe" stroke="#38bdf8" stroke-width="1.5" filter="url(#shadow)"/>
  <text x="90" y="113" text-anchor="middle" font-size="13" font-weight="600" fill="#0369a1">Internet</text>

  <!-- Internal WiFi -->
  <rect x="220" y="82" width="140" height="52" rx="8" fill="#fff" stroke="#cbd5e1" stroke-width="1.5" filter="url(#shadow)"/>
  <text x="290" y="105" text-anchor="middle" font-size="11" font-weight="600" fill="#334155">Internal WiFi</text>
  <text x="290" y="120" text-anchor="middle" font-size="10" fill="#94a3b8">wlp0s20f3 (uplink)</text>

  <!-- arrows -->
  <line x1="150" y1="108" x2="218" y2="108" stroke="#64748b" stroke-width="1.5" marker-end="url(#arrow)" marker-start="url(#arrow)"/>

  <!-- Controller box -->
  <rect x="425" y="76" width="160" height="64" rx="8" fill="#1e293b" stroke="#334155" stroke-width="1.5" filter="url(#shadow)"/>
  <text x="505" y="100" text-anchor="middle" font-size="11" font-weight="700" fill="#e2e8f0">Controller Host</text>
  <text x="505" y="116" text-anchor="middle" font-size="10" fill="#94a3b8">iptables FORWARD</text>
  <text x="505" y="130" text-anchor="middle" font-size="10" fill="#94a3b8">Ubuntu / Linux</text>

  <line x1="360" y1="108" x2="423" y2="108" stroke="#64748b" stroke-width="1.5" marker-end="url(#arrow)" marker-start="url(#arrow)"/>

  <!-- USB WiFi Hotspot -->
  <rect x="650" y="82" width="140" height="52" rx="8" fill="#fff" stroke="#cbd5e1" stroke-width="1.5" filter="url(#shadow)"/>
  <text x="720" y="105" text-anchor="middle" font-size="11" font-weight="600" fill="#334155">USB WiFi Hotspot</text>
  <text x="720" y="120" text-anchor="middle" font-size="10" fill="#94a3b8">wlx… (AP mode)</text>

  <line x1="585" y1="108" x2="648" y2="108" stroke="#64748b" stroke-width="1.5" marker-end="url(#arrow)" marker-start="url(#arrow)"/>

  <!-- User devices -->
  <rect x="720" y="160" width="120" height="40" rx="8" fill="#f0fdf4" stroke="#86efac" stroke-width="1.5" filter="url(#shadow)"/>
  <text x="780" y="185" text-anchor="middle" font-size="11" font-weight="600" fill="#166534">User Devices</text>
  <line x1="750" y1="134" x2="770" y2="158" stroke="#22c55e" stroke-width="1.5" marker-end="url(#arrow-green)"/>

  <!-- ======================== APP LAYER ======================== -->
  <text x="32" y="230" font-size="11" font-weight="600" fill="#94a3b8" letter-spacing="1">APPLICATION (app.py)</text>

  <!-- Big app container -->
  <rect x="30" y="244" width="840" height="150" rx="10" fill="#fff" stroke="#e2e8f0" stroke-width="1.5" filter="url(#shadow)"/>

  <!-- Flask Web App -->
  <rect x="52" y="262" width="150" height="56" rx="8" fill="#ede9fe" stroke="#a78bfa" stroke-width="1.5"/>
  <text x="127" y="285" text-anchor="middle" font-size="12" font-weight="600" fill="#5b21b6">Flask Web App</text>
  <text x="127" y="300" text-anchor="middle" font-size="10" fill="#7c3aed">:80  /start /stop /status</text>

  <!-- Timer Loop -->
  <rect x="222" y="262" width="140" height="56" rx="8" fill="#fef3c7" stroke="#fbbf24" stroke-width="1.5"/>
  <text x="292" y="285" text-anchor="middle" font-size="12" font-weight="600" fill="#92400e">Timer Loop</text>
  <text x="292" y="300" text-anchor="middle" font-size="10" fill="#b45309">online → offline → idle</text>

  <!-- iptables Control -->
  <rect x="382" y="262" width="140" height="56" rx="8" fill="#fee2e2" stroke="#f87171" stroke-width="1.5"/>
  <text x="452" y="285" text-anchor="middle" font-size="12" font-weight="600" fill="#991b1b">iptables Control</text>
  <text x="452" y="300" text-anchor="middle" font-size="10" fill="#dc2626">FORWARD DROP/ACCEPT</text>

  <!-- USB Watchdog -->
  <rect x="542" y="262" width="150" height="56" rx="8" fill="#ffedd5" stroke="#fb923c" stroke-width="1.5"/>
  <text x="617" y="285" text-anchor="middle" font-size="12" font-weight="600" fill="#9a3412">USB Watchdog</text>
  <text x="617" y="300" text-anchor="middle" font-size="10" fill="#c2410c">dmesg monitor + reset</text>

  <!-- Voice Alerts -->
  <rect x="712" y="262" width="140" height="56" rx="8" fill="#e0f2fe" stroke="#38bdf8" stroke-width="1.5"/>
  <text x="782" y="285" text-anchor="middle" font-size="12" font-weight="600" fill="#075985">Voice Alerts</text>
  <text x="782" y="300" text-anchor="middle" font-size="10" fill="#0284c7">spd-say (TTS)</text>

  <!-- Internal arrows -->
  <line x1="202" y1="290" x2="220" y2="290" stroke="#64748b" stroke-width="1" marker-end="url(#arrow)"/>
  <line x1="362" y1="290" x2="380" y2="290" stroke="#64748b" stroke-width="1" marker-end="url(#arrow)"/>

  <!-- State flow labels -->
  <rect x="52" y="336" width="330" height="44" rx="6" fill="#f1f5f9"/>
  <text x="217" y="354" text-anchor="middle" font-size="10" font-weight="600" fill="#475569">State Machine</text>
  <text x="100" y="371" text-anchor="middle" font-size="11" font-weight="700" fill="#64748b">IDLE</text>
  <line x1="122" y1="368" x2="158" y2="368" stroke="#22c55e" stroke-width="1.5" marker-end="url(#arrow-green)"/>
  <text x="196" y="371" text-anchor="middle" font-size="11" font-weight="700" fill="#22c55e">ONLINE</text>
  <line x1="226" y1="368" x2="262" y2="368" stroke="#ef4444" stroke-width="1.5" marker-end="url(#arrow-red)"/>
  <text x="308" y="371" text-anchor="middle" font-size="11" font-weight="700" fill="#ef4444">OFFLINE</text>
  <path d="M348,364 Q368,364 368,348 Q368,332 217,332 Q70,332 70,350 Q70,364 80,368" stroke="#64748b" stroke-width="1" fill="none" marker-end="url(#arrow)"/>

  <!-- Proportional cooldown note -->
  <text x="500" y="358" font-size="10" fill="#94a3b8">Early stop → proportional cooldown</text>
  <text x="500" y="372" font-size="10" fill="#94a3b8">cooldown = (used / online) × offline</text>

  <!-- ======================== SCHEDULE LAYER ======================== -->
  <text x="32" y="424" font-size="11" font-weight="600" fill="#94a3b8" letter-spacing="1">SCHEDULE (schedule.py)</text>

  <rect x="30" y="438" width="400" height="62" rx="10" fill="#fff" stroke="#e2e8f0" stroke-width="1.5" filter="url(#shadow)"/>

  <rect x="50" y="452" width="160" height="34" rx="6" fill="#f0fdf4" stroke="#86efac" stroke-width="1.5"/>
  <text x="130" y="474" text-anchor="middle" font-size="11" font-weight="600" fill="#166534">Schedule Manager</text>

  <rect x="235" y="452" width="175" height="34" rx="6" fill="#fef3c7" stroke="#fbbf24" stroke-width="1.5"/>
  <text x="322" y="474" text-anchor="middle" font-size="11" font-weight="600" fill="#92400e">rtcwake (suspend/wake)</text>

  <line x1="210" y1="469" x2="233" y2="469" stroke="#64748b" stroke-width="1" marker-end="url(#arrow)"/>

  <!-- ======================== SYSTEMD LAYER ======================== -->
  <text x="32" y="534" font-size="11" font-weight="600" fill="#94a3b8" letter-spacing="1">SYSTEMD SERVICES</text>

  <!-- service boxes (3 boxes evenly spaced across 840px) -->
  <rect x="30" y="548" width="240" height="50" rx="8" fill="#1e293b" stroke="#334155" stroke-width="1.5" filter="url(#shadow)"/>
  <text x="150" y="569" text-anchor="middle" font-size="11" font-weight="600" fill="#e2e8f0">wifi-timer.service</text>
  <text x="150" y="584" text-anchor="middle" font-size="9" fill="#94a3b8">Web app (auto-start on boot)</text>

  <rect x="330" y="548" width="240" height="50" rx="8" fill="#1e293b" stroke="#334155" stroke-width="1.5" filter="url(#shadow)"/>
  <text x="450" y="569" text-anchor="middle" font-size="11" font-weight="600" fill="#e2e8f0">wifi-sleep.timer</text>
  <text x="450" y="584" text-anchor="middle" font-size="9" fill="#94a3b8">Suspend at 22:00 daily</text>

  <rect x="630" y="548" width="240" height="50" rx="8" fill="#1e293b" stroke="#334155" stroke-width="1.5" filter="url(#shadow)"/>
  <text x="750" y="569" text-anchor="middle" font-size="11" font-weight="600" fill="#e2e8f0">wifi-schedule.service</text>
  <text x="750" y="584" text-anchor="middle" font-size="9" fill="#94a3b8">Boot guard (sleep if outside hrs)</text>

  <!-- Connecting lines from app layer down to systemd -->
  <line x1="120" y1="394" x2="120" y2="438" stroke="#cbd5e1" stroke-width="1" stroke-dasharray="4,3"/>
  <line x1="150" y1="500" x2="150" y2="546" stroke="#cbd5e1" stroke-width="1" stroke-dasharray="4,3"/>
  <line x1="322" y1="500" x2="450" y2="546" stroke="#cbd5e1" stroke-width="1" stroke-dasharray="4,3"/>
  <line x1="322" y1="500" x2="750" y2="546" stroke="#cbd5e1" stroke-width="1" stroke-dasharray="4,3"/>

  <!-- Connection from controller to app layer -->
  <line x1="505" y1="140" x2="505" y2="230" stroke="#cbd5e1" stroke-width="1" stroke-dasharray="4,3"/>

  <!-- Legend -->
  <rect x="470" y="430" width="390" height="70" rx="8" fill="#f8fafc" stroke="#e2e8f0" stroke-width="1"/>
  <text x="490" y="450" font-size="10" font-weight="600" fill="#64748b">config.json</text>
  <text x="490" y="464" font-size="9" fill="#94a3b8">connection_name, hotspot_iface, usb_device,</text>
  <text x="490" y="477" font-size="9" fill="#94a3b8">desktop_user, online/offline minutes,</text>
  <text x="490" y="490" font-size="9" fill="#94a3b8">voice_alerts, port, schedule (per day)</text>
</svg>
